<mxfile host="Electron" modified="2024-12-26T22:23:47.765Z" agent="Mozilla/5.0 (Macintosh; Intel Mac OS X 10_15_7) AppleWebKit/537.36 (KHTML, like Gecko) draw.io/22.1.2 Chrome/114.0.5735.289 Electron/25.9.4 Safari/537.36" etag="9r_ATGBGCZHfF98F2T26" version="22.1.2" type="device">
  <diagram id="vVTAjIV3OAU-wJF8oK5W" name="AI">
    <mxGraphModel dx="2021" dy="651" grid="1" gridSize="10" guides="1" tooltips="1" connect="1" arrows="1" fold="1" page="1" pageScale="1" pageWidth="1169" pageHeight="1654" math="0" shadow="0">
      <root>
        <mxCell id="0" />
        <mxCell id="1" parent="0" />
        <mxCell id="kOawJmbno_NPGkHudWB5-30" value="" style="rounded=0;whiteSpace=wrap;html=1;fillColor=#d5e8d4;strokeColor=#82b366;" vertex="1" parent="1">
          <mxGeometry x="-10" y="580" width="760" height="320" as="geometry" />
        </mxCell>
        <mxCell id="kOawJmbno_NPGkHudWB5-32" value="" style="rounded=0;whiteSpace=wrap;html=1;" vertex="1" parent="1">
          <mxGeometry x="330" y="610" width="410" height="280" as="geometry" />
        </mxCell>
        <mxCell id="kOawJmbno_NPGkHudWB5-5" value="Embedding documentation" style="rounded=0;whiteSpace=wrap;html=1;" vertex="1" parent="1">
          <mxGeometry x="350" y="647" width="110" height="110" as="geometry" />
        </mxCell>
        <mxCell id="kOawJmbno_NPGkHudWB5-15" value="" style="rounded=0;whiteSpace=wrap;html=1;fillColor=#dae8fc;strokeColor=#6c8ebf;" vertex="1" parent="1">
          <mxGeometry x="-10" y="180" width="760" height="370" as="geometry" />
        </mxCell>
        <mxCell id="kOawJmbno_NPGkHudWB5-12" value="" style="rounded=0;whiteSpace=wrap;html=1;" vertex="1" parent="1">
          <mxGeometry x="40" y="230" width="140" height="280" as="geometry" />
        </mxCell>
        <mxCell id="kOawJmbno_NPGkHudWB5-1" value="" style="rounded=0;whiteSpace=wrap;html=1;" vertex="1" parent="1">
          <mxGeometry x="310" y="230" width="410" height="280" as="geometry" />
        </mxCell>
        <mxCell id="kOawJmbno_NPGkHudWB5-8" value="" style="rounded=1;whiteSpace=wrap;html=1;arcSize=0;" vertex="1" parent="1">
          <mxGeometry x="10" y="610" width="300" height="280" as="geometry" />
        </mxCell>
        <mxCell id="kOawJmbno_NPGkHudWB5-2" value="docusaurus-llm" style="text;html=1;strokeColor=none;fillColor=none;align=center;verticalAlign=middle;whiteSpace=wrap;rounded=0;" vertex="1" parent="1">
          <mxGeometry x="470" y="230" width="90" height="30" as="geometry" />
        </mxCell>
        <mxCell id="kOawJmbno_NPGkHudWB5-3" value="Plugin" style="rounded=0;whiteSpace=wrap;html=1;" vertex="1" parent="1">
          <mxGeometry x="30" y="640" width="110" height="110" as="geometry" />
        </mxCell>
        <mxCell id="kOawJmbno_NPGkHudWB5-4" value="Langchain" style="rounded=0;whiteSpace=wrap;html=1;" vertex="1" parent="1">
          <mxGeometry x="550" y="270" width="110" height="110" as="geometry" />
        </mxCell>
        <mxCell id="kOawJmbno_NPGkHudWB5-9" value="docusaurus-ai" style="text;html=1;strokeColor=none;fillColor=none;align=center;verticalAlign=middle;whiteSpace=wrap;rounded=0;" vertex="1" parent="1">
          <mxGeometry x="115" y="610" width="90" height="30" as="geometry" />
        </mxCell>
        <mxCell id="kOawJmbno_NPGkHudWB5-11" style="edgeStyle=orthogonalEdgeStyle;rounded=0;orthogonalLoop=1;jettySize=auto;html=1;entryX=0;entryY=0.5;entryDx=0;entryDy=0;" edge="1" parent="1" source="kOawJmbno_NPGkHudWB5-10" target="kOawJmbno_NPGkHudWB5-4">
          <mxGeometry relative="1" as="geometry" />
        </mxCell>
        <mxCell id="kOawJmbno_NPGkHudWB5-10" value="API server" style="rounded=0;whiteSpace=wrap;html=1;" vertex="1" parent="1">
          <mxGeometry x="345" y="270" width="110" height="110" as="geometry" />
        </mxCell>
        <mxCell id="kOawJmbno_NPGkHudWB5-13" value="generated files" style="text;html=1;strokeColor=none;fillColor=none;align=center;verticalAlign=middle;whiteSpace=wrap;rounded=0;" vertex="1" parent="1">
          <mxGeometry x="80" y="230" width="60" height="30" as="geometry" />
        </mxCell>
        <mxCell id="kOawJmbno_NPGkHudWB5-29" style="rounded=0;orthogonalLoop=1;jettySize=auto;html=1;entryX=0.5;entryY=0;entryDx=0;entryDy=0;" edge="1" parent="1" source="kOawJmbno_NPGkHudWB5-14" target="kOawJmbno_NPGkHudWB5-3">
          <mxGeometry relative="1" as="geometry">
            <Array as="points">
              <mxPoint x="10" y="360" />
            </Array>
          </mxGeometry>
        </mxCell>
        <mxCell id="kOawJmbno_NPGkHudWB5-14" value="html" style="shape=note;whiteSpace=wrap;html=1;backgroundOutline=1;darkOpacity=0.05;size=15;" vertex="1" parent="1">
          <mxGeometry x="82" y="265" width="56" height="70" as="geometry" />
        </mxCell>
        <mxCell id="kOawJmbno_NPGkHudWB5-18" value="Docker" style="text;html=1;strokeColor=none;fillColor=none;align=center;verticalAlign=middle;whiteSpace=wrap;rounded=0;" vertex="1" parent="1">
          <mxGeometry x="340" y="180" width="60" height="30" as="geometry" />
        </mxCell>
        <mxCell id="kOawJmbno_NPGkHudWB5-19" value="Gen AI" style="endArrow=classic;html=1;rounded=0;exitX=0;exitY=0;exitDx=56;exitDy=42.5;exitPerimeter=0;entryX=0;entryY=0.5;entryDx=0;entryDy=0;" edge="1" parent="1" source="kOawJmbno_NPGkHudWB5-14" target="kOawJmbno_NPGkHudWB5-10">
          <mxGeometry width="50" height="50" relative="1" as="geometry">
            <mxPoint x="370" y="470" as="sourcePoint" />
            <mxPoint x="420" y="420" as="targetPoint" />
          </mxGeometry>
        </mxCell>
        <mxCell id="kOawJmbno_NPGkHudWB5-44" style="rounded=0;orthogonalLoop=1;jettySize=auto;html=1;entryX=0.5;entryY=1;entryDx=0;entryDy=0;edgeStyle=orthogonalEdgeStyle;" edge="1" parent="1" source="kOawJmbno_NPGkHudWB5-20" target="kOawJmbno_NPGkHudWB5-4">
          <mxGeometry relative="1" as="geometry" />
        </mxCell>
        <mxCell id="kOawJmbno_NPGkHudWB5-20" value="embedding docs" style="shape=note;whiteSpace=wrap;html=1;backgroundOutline=1;darkOpacity=0.05;size=15;" vertex="1" parent="1">
          <mxGeometry x="205" y="383.75" width="68" height="70" as="geometry" />
        </mxCell>
        <mxCell id="kOawJmbno_NPGkHudWB5-26" value="" style="shape=image;verticalLabelPosition=bottom;labelBackgroundColor=default;verticalAlign=top;aspect=fixed;imageAspect=0;image=data:image/png,iVBORw0KGgoAAAANSUhEUgAAAOEAAADhCAMAAAAJbSJIAAAAk1BMVEXw208yMzDw2kvz43zx3Vjz4nT131AvMTAeIy5CQTLSv0n34VD44lAnKi8sLi9yajkqLC8bIC4jJy8XHi7q1k55cTrfzExKSDOwokPZx0vDs0c9PTJ2bzq1p0TKuUiDejxmYDeLgT2Vij9QTTQ5OTGom0JcWDabj0BjXjejlkFYVDXdykvl0U2zpUT16JYTGy4IFC3e0EHdAAAIn0lEQVR4nO2c2XbquBKG7dN9JIEGbBnMaMYwBad3v//TtZ2QBHDJFlOWKkv/zb7YpNCH5qpSBX/9cv0T/O+X6//BL5cnxC9PiF+eEL88IX55QvzyhPjlCfHLE+KXJ8QvT4hfnhC/PCF+eUL88oT45QnxyxPilyfEL0+IX54QvzwhfnlC/PKE+OUJ8csT4pcnxC9PiF+eEL88IX55QvzyhPjlCfHLE+KXJ8QvT4hfnhC/PCF+eUL88oT45QnxyxPilyfEL0+IX54QvzwhfnlC/PKE+OUJ8csT4pcnxC8chITwQoR8/XvF3/4UoeCArBpaQHXbg2Vvt2oVWu06i/3oENj9bakfIiS9TlXzYWMzC7z2cqOYlpFStJSKpGZs3Bnkwg7ypwjHMqroT7uhjUSky5dEq7AiGulkkwXc4qt/irBFq81kDYR8OGEa+LujFHvZB8396C4h787iyIj30ZP6JWuckM4SikzJer53xmSeNyA6SkhILzaPz1PJcCpqv9pNQpKvtBXfezcOahccJwlJPm6YgWdK9nWILhIWgMAGUYtYM1BdJAxW1/RgqT+ZuRcdJBQT6znY/GO5SMjfkqsBQ/rSNX21e4RdardNnEt2TOPUOUIxs9joAcVvBkTXCMkhvgkwpKFhnLpGeGsXFtZ6cCe6Rtg1bhRUSV1cE02TVPen8HLqGCEZMBhAxbSz3G6Xk1YCXahUsjS5Nhwj5HPwNEPZfMoFL278QqT7cWW/ZK9D46nGMcIuOAupzL5dFoQHy+TMWqT3NbdEtwjJFFpJqWqfLyJiqr7N0Xie4zl5kz10YEtGlwR8+IUow6zeJeUWoegBS6naVecYP3Y2TSbdBneUW4T8FVho2Ag6+qzLRVePR/UX/MA1QvEC7QTgYYXvlEoW6HxtBDh10xVIQdJ/+22E/lJgkKpXmIOMLDowwEBIV4aesoxcOEYIjdKX+77aLUIRQh9rDuDUyTHCPvAxvbVZUIxyixA8eNPwrq92jBC8/8pe47ZeI7cIyRp0JLLlHePUMULwblF6KK4K3Z/JLULD/bBYbVpT+8j9uRwjLE6bMKKKe+ltjI4RGiZiKclmqWVywpkcIwzSmpiFZL329YyuEfJOXdwpYpsRuXJddY2QTOvjMioe720zaT7kGmEgNg3RUaqj2fAKRucISbs5cCGTYrDaMjpHGIiZRYBUxf2B5QXRPcIggJw1VUY2Xlv1o4OEpG2IXVyIsvHAgtFBwoAP/lghFoz9UeOa4yJhIPa2oXyV7A6oPMKfElvrbIVIb+uHqpuEAV8nNsvNh5lVbTc6ShiIUWSdF6X0AFtOVCl+sE/eC5MFqpyozz8hS2bdjWxu3P/dJSxGarvPbGej3pgQXSYsunFNbYeq3BiMOE1YJnsvtWWCje7Ay43jhAVjvtA1CfsnircgovOExXTMl6HVfIzBnCEEhOVYXbeS5nVVtdASlkk007mWTR3JoBgOEsLyhdBwoRomJIVC/mgIy34sBmv9IQAKxCEiLM2Q0SauYYTixbgIPybkHzNjXM29wUZYTsj23PhiKKqGGvERloyjagLmcZiGv6AP380FM4NXNa7YxElY5rXBiHrwWwgLRNCVIyt3YbSEhqx+Nf89hEFXATZp/9eM0qITF0AnVvd8VwnFodnmCPL+V46mjyU0+mbJ+LpXssHyX9M7pu8PpRChzC8+9lBCfjC2+ZqUPELeQk1V0yNtODVFP5GQkD0z5YLmUGNYCpoR7dfySh9VVsVL/TShmLZYGMPvquGAWXTZmFI87x1P1gz2u3wbhUfps+Zh0bDyWmN4I0cGwDkSuuqQYCu/eiauvLM4/2wGEFYTGR9DSMj62DA4jxB+R1EZ0kRkp0dqyqZ1iGBiypP2Qz5dfTnDEuhZNfjyNbp82Crau/OIE5U1iGQIbhbPONOUJTrUSavSarbaGpwx5zmVhZmKi4KyzDgX+Qq6CD/hXErIQJ6taap1ucwT8HwVsoycmllLaGk0PRohpANeEfXbo0fpcWk/VdRKz35HEmzATK7kdLNIWwanr+5PgVA9z3fwHTiu7LH3EZ4P0E+p6KRqDBGHFfyocHz2O/RNzhcVz6fkLPGS8GAfwelvtFWZuHcRkkEI/pI0fn3LuSjEu9MZVAUpvJwxZGROhVJxfznt8o9iWqXJRWhynFan4X2E3FjfQWnZn086uz5lptDRRZSBd2piTFQyteosltvlorNSzOz8TqrHxvv68FCT20NVFIErzPG/xxe2cuMz7U97UmppfsxdCnojdd88FIvri3QcpS/z72+qh3GhOKsuSneupV3ozmAlVtk2ee/mn+soVTnQ3E9IshuLPMhZdTyR/rV1aS6UQK9N794PJ7dVeWDA7Y/kL9fVFrqQBOPc95/arqx4dAQEX2uRYcNqUytDjZr7T21Duyj7mdTKYKwtb+/FBC6McX8f8pq92iCqD6YqX8PwVsTk7Wm5GCKzz7I7NsZ8tSV5/7YVNVkbbiGPuB+KzDp1qb4x74jBxLLa3qloYkzee9ANWNmPLVoLWEgM5LW7RkTNlQce5MVIV3a52eWJtbEMAk93V4374qBf43l8kCeKcMtEwoZ016M1kZmui4C0Wte9anuYN1EMd81JPZLt7V6CkGA9rktJ+BKV8ay2eMsD/aWEj15rS6pSrRsac2aOZJu6CrTvUowu8oZB/0ivPuHTnmTwsYTKZLxMrfnezYnhsp9o0w2MRoztBt0ffo1ARDebhExL9e0+LO6JmrHW4sIVYWWOk+G6EzKmo1ODHxZfJoPcxuLDo2uEB8PBYt4Py6LURdvU+HWyHaXixme8hAgyzLa9TevToAxbm952dLD9wZ4RPywrp5Ogmw6Hw0PeDWxLk9faK8Z3Nz0UFtO8LPLN7d92PzNCSq4rD/8kgzjq6t8jT4hfnhC/PCF+eUL88oT45QnxyxPiV0H49y/XX/8B51Sbqi+5TiEAAAAASUVORK5CYII=;" vertex="1" parent="1">
          <mxGeometry x="40" y="825" width="55" height="55" as="geometry" />
        </mxCell>
        <mxCell id="kOawJmbno_NPGkHudWB5-27" value="" style="shape=image;verticalLabelPosition=bottom;labelBackgroundColor=default;verticalAlign=top;aspect=fixed;imageAspect=0;image=data:image/png,iVBORw0KGgoAAAANSUhEUgAAAOEAAADhCAMAAAAJbSJIAAAAw1BMVEX/////zDszbJn/yzYtapf+ySb8////zTr812MdYI9ch6tdhar91lz9zSxvka/f5+392W7M2eD78cv99t4jZpVVgqMjZpP///z+yi91kqn91V381mTT3+gva5Yuapm6y9jv9Pf93X38++/13HX+z0aswc+Do711mbc7cJh+mrRhh6bI1d1Ke6EgYY6ZssR6n76mvNCOp73m7fP74Y385J/96Kz67L784Ib+6bVmiqX9+OP89db60k62ydj822389dj+2oNcWN3GAAAHGElEQVR4nO2ci1biOhRAW/qIBcrLSHNBQkHAF3JHEcXB0fn/r5qklRGFpinQtJ11NktHGGRlr5M0ac6JmgYAAAAAAAAAAAAAAAAAAAAAAAAAAAAAAAAAAAAAAAAAAABsYDfHk1r57KxSOQv4+IdTvpmMz7Nu36GcX7cxNik1TWr2aKnXo5T2euwZ/05Nip32pMiSzTPHLNGSGOycNbNu6J74lw63izNk73Au/awbuw/NKxzrtsYsFTCMfXk/Hkbcz7rBSenjXhLD4ik240ffd3ChOqp/ZQaBcTiysld+1s1OwHUwCPHNra3Z/ankiMTXWTdbnuZd0OIZ+9FjXxNJRac4/fSGfg3Ji1xHpeUM25yIc4e3985ni9KPF2SDWJQF3CRYylTWfkx0KhnESZbNToBZYnMh/X/jFcluWqKZtTkR9aCT0svPGIYDU6ab1jNstzzjcNT1Pl/xr+QES3icXbMTcB8aOp/LsB+ya1R6n2G75amFXdL8u0apSy/haC3LhktTNj+aOw0v/rcSt4hrw2LMiGtDdr9Qm41nNwluo4pi+BkyirFpCoyKb5gUMMwJYFh8w8o/bzh1RPwLhnURD+1/wFAMGOYQ/3Z2fVOuSCK+0ObQ0B+XHafNc2eSiK+zgeG82gk4aQwen4Z2bBtS9ZtRvP/UEGV4QQwUPAyDWFZ3McxOsJ8gu5TE0NA3MCx9npGjLbvRe5ihriMyespC0K8lSy7tb8ji6D57ygVt2e2zYxiyMHaV99Ta8buowFDX3RPFUZyJ15f7YkYa6uRNqWI9HUFBDHXdelRpeMAtoNiQ7yY2dhsi912d4G1KISzhe03zOrsN2VBUt75J5ToaGI41bTjaLcj6aUuV4ENaIQwyM6cERRiiqirD8V1ahib79KUVZaiTn4oMZbOBicE8Q/o7Moa6u1AjaMvmyhLDs9xDFCmoo64aw4e0Qkhf2Kc/WZGCOhqpmfXP0zLkIbQbRnQMdVfNQGwmLFmTJRiFLUvUS8lKjWE7FUM69QXTfWjoqpkRm6ncVpQwz6cuBKOQ91JFhsINwX1x+pqn/SS6YBSqMzx+DHu0fcs+2XsV9dFCxxBf1VkEvQERCxY2hiae+Oxz4wWLaUgxrvFrjD0cuMIxmGdDGrEjzuQcZ3of1qScVmOuMnk15KdippXaTi6vZ7/qH3e1C0QEU31uDalzdzmu217sarJVdZGEYN4MTWf6S2bfwVtW2VKtgIbO2W3wdi5p70bzvPflm0tEi+3cGlLzR/hu7+dy/jxo7KT76loWm+RlBfNkiM+CWljvff7quoRFKUiWbeLyb0HPlOmeuTPE4WG0VoMQHiLugHT0FX0tJy+YH0N87bGh5z27McvMxOTFENf4/HA6chP0v3wZxqy86ZRfPltyM1w+DWNi2H5g08MTSUEwJ4Z3vN5+lYafQkPRPg2dajz3kIafrhM1huJTTMEBtHn0vvVBKIqhcEc4yHG23FT8WAzV7CYKd/WdPpsJ3+LvZfdD0Y6wMH3Y8zX7XbSrexCKdvVFh3z4sUp7bqRkaCjKzGgPAsNf7P+TrDQTQRRl1zZOxWwPQ57EFe9bH4ClKkMqqFTgp7kWKU0VrJOqK1WIKsenFZsNw9htzz1RV6mgafWITD59YYZvx75n+sBQVqjAiaj6ov/F5Tj3B7mnKg0jKveYoW2fpGOotuqLRWpn4RePoVZNo5cicqG6xNR/2RFFHkOtmkYIMygw1ez77b9aEozD6vFXNIg0Mqn13q5kD3rp8cehQebqq6AD/FkJbxtWj2yIrNFTdqcu/HH5zsGY0jCDho9vaFjoMcMTFwzP78+uazflkPt4Q0MeQiyrs8zWbxs7xhB1uycn3b+PjR+/P+12B4+tjE8F7SbGUL7JPDuVS8SGBn+L/fVr82kRiInhqZBQNHzklpgrjSXiNcdenxwwWxgdMMwFYAiG+SeRISJko9hE5W7aASS4x0ek+7h4bBjr3yiIofz9IQoP+HqrV1Qow4bsjjByV3zl4vGMahhFo1EIQ+n06EYaohX+DpkXwnARfTTrWww/7/zscG+HLDNstzzvkhlgo7ux+TIIDK3TQsTQk9xr+zLoBmGFW0YbTkl5lpsujNcNnw43JM/ZNToRK8kE4kbdwZCPXaQyuXQQ9olkN/07EO2gkxoKjzIfSEs2iB+90n4MJgtF9UBHIf5sSIj7+jTUhq2Gy6tP3UHWzU7Aeo0SB0LB3kXwZjTK28aokFbymiGkpt7pWPDqy2R+biZ/ZecQlolKoI3iCbKOOpKvySCjla0VZD2zwfDCklzcWBeFush8Yrc6VvxwJFanQPPgFqvfyCIkKnuGiOsav4t1Dd3C1laL58ZJp9rpVL/TaTwvV3nOTyQgr2kyAAAAAAAAAAAAAAAAAAAAAAAAAAAAAAAAAAAAAAAAAACKxx8ZjrJGDmPECgAAAABJRU5ErkJggg==;" vertex="1" parent="1">
          <mxGeometry x="320" y="450" width="55" height="55" as="geometry" />
        </mxCell>
        <mxCell id="kOawJmbno_NPGkHudWB5-31" value="Build time" style="text;html=1;strokeColor=none;fillColor=none;align=center;verticalAlign=middle;whiteSpace=wrap;rounded=0;" vertex="1" parent="1">
          <mxGeometry x="345" y="580" width="60" height="30" as="geometry" />
        </mxCell>
        <mxCell id="kOawJmbno_NPGkHudWB5-33" value="docusaurus-llm" style="text;html=1;strokeColor=none;fillColor=none;align=center;verticalAlign=middle;whiteSpace=wrap;rounded=0;" vertex="1" parent="1">
          <mxGeometry x="490" y="610" width="90" height="30" as="geometry" />
        </mxCell>
        <mxCell id="kOawJmbno_NPGkHudWB5-40" style="rounded=0;orthogonalLoop=1;jettySize=auto;html=1;exitX=0;exitY=0.5;exitDx=0;exitDy=0;" edge="1" parent="1" source="kOawJmbno_NPGkHudWB5-34" target="kOawJmbno_NPGkHudWB5-5">
          <mxGeometry relative="1" as="geometry" />
        </mxCell>
        <mxCell id="kOawJmbno_NPGkHudWB5-34" value="Langchain" style="rounded=0;whiteSpace=wrap;html=1;" vertex="1" parent="1">
          <mxGeometry x="510" y="647" width="110" height="110" as="geometry" />
        </mxCell>
        <mxCell id="kOawJmbno_NPGkHudWB5-37" style="rounded=0;orthogonalLoop=1;jettySize=auto;html=1;entryX=0.5;entryY=1;entryDx=0;entryDy=0;" edge="1" parent="1" source="kOawJmbno_NPGkHudWB5-38" target="kOawJmbno_NPGkHudWB5-34">
          <mxGeometry relative="1" as="geometry">
            <mxPoint x="640" y="940" as="targetPoint" />
          </mxGeometry>
        </mxCell>
        <mxCell id="kOawJmbno_NPGkHudWB5-38" value="Proxy" style="rounded=0;whiteSpace=wrap;html=1;" vertex="1" parent="1">
          <mxGeometry x="370" y="810" width="60" height="60" as="geometry" />
        </mxCell>
        <mxCell id="kOawJmbno_NPGkHudWB5-39" value="" style="shape=image;verticalLabelPosition=bottom;labelBackgroundColor=default;verticalAlign=top;aspect=fixed;imageAspect=0;image=data:image/png,iVBORw0KGgoAAAANSUhEUgAAAOEAAADhCAMAAAAJbSJIAAAAw1BMVEX/////zDszbJn/yzYtapf+ySb8////zTr812MdYI9ch6tdhar91lz9zSxvka/f5+392W7M2eD78cv99t4jZpVVgqMjZpP///z+yi91kqn91V381mTT3+gva5Yuapm6y9jv9Pf93X38++/13HX+z0aswc+Do711mbc7cJh+mrRhh6bI1d1Ke6EgYY6ZssR6n76mvNCOp73m7fP74Y385J/96Kz67L784Ib+6bVmiqX9+OP89db60k62ydj822389dj+2oNcWN3GAAAHGElEQVR4nO2ci1biOhRAW/qIBcrLSHNBQkHAF3JHEcXB0fn/r5qklRGFpinQtJ11NktHGGRlr5M0ac6JmgYAAAAAAAAAAAAAAAAAAAAAAAAAAAAAAAAAAAAAAAAAAABsYDfHk1r57KxSOQv4+IdTvpmMz7Nu36GcX7cxNik1TWr2aKnXo5T2euwZ/05Nip32pMiSzTPHLNGSGOycNbNu6J74lw63izNk73Au/awbuw/NKxzrtsYsFTCMfXk/Hkbcz7rBSenjXhLD4ik240ffd3ChOqp/ZQaBcTiysld+1s1OwHUwCPHNra3Z/ankiMTXWTdbnuZd0OIZ+9FjXxNJRac4/fSGfg3Ji1xHpeUM25yIc4e3985ni9KPF2SDWJQF3CRYylTWfkx0KhnESZbNToBZYnMh/X/jFcluWqKZtTkR9aCT0svPGIYDU6ab1jNstzzjcNT1Pl/xr+QES3icXbMTcB8aOp/LsB+ya1R6n2G75amFXdL8u0apSy/haC3LhktTNj+aOw0v/rcSt4hrw2LMiGtDdr9Qm41nNwluo4pi+BkyirFpCoyKb5gUMMwJYFh8w8o/bzh1RPwLhnURD+1/wFAMGOYQ/3Z2fVOuSCK+0ObQ0B+XHafNc2eSiK+zgeG82gk4aQwen4Z2bBtS9ZtRvP/UEGV4QQwUPAyDWFZ3McxOsJ8gu5TE0NA3MCx9npGjLbvRe5ihriMyespC0K8lSy7tb8ji6D57ygVt2e2zYxiyMHaV99Ta8buowFDX3RPFUZyJ15f7YkYa6uRNqWI9HUFBDHXdelRpeMAtoNiQ7yY2dhsi912d4G1KISzhe03zOrsN2VBUt75J5ToaGI41bTjaLcj6aUuV4ENaIQwyM6cERRiiqirD8V1ahib79KUVZaiTn4oMZbOBicE8Q/o7Moa6u1AjaMvmyhLDs9xDFCmoo64aw4e0Qkhf2Kc/WZGCOhqpmfXP0zLkIbQbRnQMdVfNQGwmLFmTJRiFLUvUS8lKjWE7FUM69QXTfWjoqpkRm6ncVpQwz6cuBKOQ91JFhsINwX1x+pqn/SS6YBSqMzx+DHu0fcs+2XsV9dFCxxBf1VkEvQERCxY2hiae+Oxz4wWLaUgxrvFrjD0cuMIxmGdDGrEjzuQcZ3of1qScVmOuMnk15KdippXaTi6vZ7/qH3e1C0QEU31uDalzdzmu217sarJVdZGEYN4MTWf6S2bfwVtW2VKtgIbO2W3wdi5p70bzvPflm0tEi+3cGlLzR/hu7+dy/jxo7KT76loWm+RlBfNkiM+CWljvff7quoRFKUiWbeLyb0HPlOmeuTPE4WG0VoMQHiLugHT0FX0tJy+YH0N87bGh5z27McvMxOTFENf4/HA6chP0v3wZxqy86ZRfPltyM1w+DWNi2H5g08MTSUEwJ4Z3vN5+lYafQkPRPg2dajz3kIafrhM1huJTTMEBtHn0vvVBKIqhcEc4yHG23FT8WAzV7CYKd/WdPpsJ3+LvZfdD0Y6wMH3Y8zX7XbSrexCKdvVFh3z4sUp7bqRkaCjKzGgPAsNf7P+TrDQTQRRl1zZOxWwPQ57EFe9bH4ClKkMqqFTgp7kWKU0VrJOqK1WIKsenFZsNw9htzz1RV6mgafWITD59YYZvx75n+sBQVqjAiaj6ov/F5Tj3B7mnKg0jKveYoW2fpGOotuqLRWpn4RePoVZNo5cicqG6xNR/2RFFHkOtmkYIMygw1ez77b9aEozD6vFXNIg0Mqn13q5kD3rp8cehQebqq6AD/FkJbxtWj2yIrNFTdqcu/HH5zsGY0jCDho9vaFjoMcMTFwzP78+uazflkPt4Q0MeQiyrs8zWbxs7xhB1uycn3b+PjR+/P+12B4+tjE8F7SbGUL7JPDuVS8SGBn+L/fVr82kRiInhqZBQNHzklpgrjSXiNcdenxwwWxgdMMwFYAiG+SeRISJko9hE5W7aASS4x0ek+7h4bBjr3yiIofz9IQoP+HqrV1Qow4bsjjByV3zl4vGMahhFo1EIQ+n06EYaohX+DpkXwnARfTTrWww/7/zscG+HLDNstzzvkhlgo7ux+TIIDK3TQsTQk9xr+zLoBmGFW0YbTkl5lpsujNcNnw43JM/ZNToRK8kE4kbdwZCPXaQyuXQQ9olkN/07EO2gkxoKjzIfSEs2iB+90n4MJgtF9UBHIf5sSIj7+jTUhq2Gy6tP3UHWzU7Aeo0SB0LB3kXwZjTK28aokFbymiGkpt7pWPDqy2R+biZ/ZecQlolKoI3iCbKOOpKvySCjla0VZD2zwfDCklzcWBeFush8Yrc6VvxwJFanQPPgFqvfyCIkKnuGiOsav4t1Dd3C1laL58ZJp9rpVL/TaTwvV3nOTyQgr2kyAAAAAAAAAAAAAAAAAAAAAAAAAAAAAAAAAAAAAAAAAACKxx8ZjrJGDmPECgAAAABJRU5ErkJggg==;" vertex="1" parent="1">
          <mxGeometry x="680" y="616" width="55" height="55" as="geometry" />
        </mxCell>
        <mxCell id="kOawJmbno_NPGkHudWB5-22" style="rounded=0;orthogonalLoop=1;jettySize=auto;html=1;exitX=1;exitY=0.5;exitDx=0;exitDy=0;entryX=0;entryY=0.5;entryDx=0;entryDy=0;" edge="1" parent="1" source="kOawJmbno_NPGkHudWB5-3" target="kOawJmbno_NPGkHudWB5-38">
          <mxGeometry relative="1" as="geometry">
            <mxPoint x="200" y="345" as="sourcePoint" />
            <mxPoint x="68" y="263" as="targetPoint" />
          </mxGeometry>
        </mxCell>
        <mxCell id="kOawJmbno_NPGkHudWB5-42" style="rounded=0;orthogonalLoop=1;jettySize=auto;html=1;entryX=1;entryY=0.5;entryDx=0;entryDy=0;" edge="1" parent="1" source="kOawJmbno_NPGkHudWB5-41" target="kOawJmbno_NPGkHudWB5-34">
          <mxGeometry relative="1" as="geometry" />
        </mxCell>
        <mxCell id="kOawJmbno_NPGkHudWB5-41" value="GPT model" style="rounded=0;whiteSpace=wrap;html=1;" vertex="1" parent="1">
          <mxGeometry x="610" y="770" width="110" height="110" as="geometry" />
        </mxCell>
        <mxCell id="kOawJmbno_NPGkHudWB5-43" style="rounded=0;orthogonalLoop=1;jettySize=auto;html=1;entryX=0.5;entryY=1;entryDx=0;entryDy=0;entryPerimeter=0;edgeStyle=orthogonalEdgeStyle;" edge="1" parent="1" source="kOawJmbno_NPGkHudWB5-5" target="kOawJmbno_NPGkHudWB5-20">
          <mxGeometry relative="1" as="geometry">
            <Array as="points">
              <mxPoint x="405" y="570" />
              <mxPoint x="239" y="570" />
            </Array>
          </mxGeometry>
        </mxCell>
        <mxCell id="kOawJmbno_NPGkHudWB5-45" value="" style="shape=image;verticalLabelPosition=bottom;labelBackgroundColor=default;verticalAlign=top;aspect=fixed;imageAspect=0;image=data:image/png,iVBORw0KGgoAAAANSUhEUgAAAOEAAADhCAMAAAAJbSJIAAAAeFBMVEX///8Ol0gAlEFzuIoAjjEAlUQAkToAkDYAjzMAjS4Akz4AkTn6/fvs9e/L49Py+PQlnFNZrXaAvpTe7eOq0rfF4M7l8elOqW7X6t09o2Iwn1qkz7J4uo4onVW+3MhSq3GPxaBksn6y1r2Ux6U5omBgsHyIwZqm0LO6RLh9AAAHp0lEQVR4nO2d2XajOhBFLRkxCPAQz3bieIid///Da990p21DgVRISMViv/RTE50FOugIuWow6Onp6enp6enp0SSbrWeZ60FYZP4VRFEUfM1dD8QSexEKduf27971YCww20TsH9Fm5npAhhkPE8EeEclw7HpQJtlFnL3Co53rYRljwcKCvjshW7gemhGWq1iUCrw9qvFq6Xp4jcneEkjfz3R8I/56/E5lhb47Mv12PcgGjCZpjb476WTkeqBI8ik4AV+n4zR3PVgM16T4hoDgydX1cLU5yboJ+IyUJ9dD1mK9jepFvRBt166Hrcz4GKhNwGdEcCSykDsH6hPwGR6cXQ9egVtGQuq743+ues5IGPzOVdlrRsJwy1XeLuTKMhIGX3MVlJEw+JirKjISBu9yVU1GQmn0KlfNQ70lmhoy9GXXcfShkpEwpB8+5Kp8ilqiqSEC97nqoJGRMPDk4FTfiduYgM9I7i5Xrb+aLtHUiL7c5CpkRsLgJledY7sT8Bket52r9gaXaGqErM1cdctIbT2g/xDt5ars3fgSTVFj8t7KQm4X2X9DQMgWctVi0vYEfCac2M1Vy0+jGQmDiD8t5irzGQnDLVdZ0mcnI2Gwk6vWW1sZCUNqfIM8v7S2RFNDBBejueqA3sa2Bw8OxvS1kZEwmMpVbWUkDCZyVeGoj180P3jUbkbC0CxXtZ+RMDTIVUfnSzQ1RHzECdz46aBlyA3qDtIReJOIuIuLwPWotQj0Q9WWxhz8i9jqCpzRuoW3m6i7ifNN4T3xSKh7APDN9zf9K1w3Fg8RCrlMwzCUDScwv19D/6/zoW2FIhLD3Wm/n19XUYp+AETE3ub7/e4Y6c4S6wrjz4ePmaNhjHuZhttf09+les+CZYVCvryOsitmTyB+PIM51ltT2VUoWDHC5BttN45ftntXOmOwqzAszWhvmslZFsao8xhYVRgB6eWgJ5EXLrDQuIBNhfCCaajzoMqSTxIaS0ebCiu2ZzcaT0JQ8qhrrKxsKozg7wgZU74J4qPk/8/UH1ObCuOKj3pL5SHysoSXxV4oDKquM0oajVA94ThTONgp3ga6Cgfvam5BWKHi0oSywoGSoZJWmKsYKmmFSoZKW+FgXm+oxBUqGCp1hfWGSl7hYFJjqPQV1hkqfYV1htoBhTWG2gWFg7cqQ+2EwkpD7YbCKkPtiMIcPhvXEYWDNWio5BRCx+pOkKGSU3iBPslChkpO4VBCO3Cf5VempzAEj7iUGyo9hbz4oeUP41JDJaiQRdCRulJDpaiQJdApnlPJwEkqZAH0ReNafFBpKhQCMtRp4Qs2TYWMf0HX/3g1VKIK4TOD49cXP1WF6oZKViFLoCPKL4ZKVyF8aPDZUAkrFFzJUAkrZAI01MejFpQVVhjqw00krRA21Nk/Q6WtEDbU/a8E4gphQz38NVTqCgWHfoB1kd1QWHH47Y+hklfI5AX4S2MuuqGQpQfgT/38tKMDClkAGmrSEYUsgQz1HHVEIZOQoR5lRxRWGWo3FDI5Bf5cBmyvklNYYahJRxSyACoSsC99XxJUyBKoRkBpiUSKCoGfnwCQVFh6KL9TCmFD7YxClqq3CSCqEDbUziiEDbUzCpUNla5CMem6QiY/u66QpUq/n6eskMUqhkpaoZKh0lbI0vqacsQVKhgqcYWM1xoqdYUsrDNU8gpZXFOmk75CllR3P+iAwhpD9VjhUfX/VxuqHwpLKw5slEsN8BU8ityP3+OHJcuvTKNUWPgOjmLvR9UIUbLvctKp+QEb6tSPyh9lH+n16tlBR211isZZVSgKh9Z3mnWjgbMahSOarhQWliZr7YJ9Qdn2W/GYrTOFLHoyi4W6A/4iC/XyvaqEdS9D9hv2sndUyUURbU8PR/yys2YLDdsKmYg33+s8n+2H6MrDIoxX5/0sz5fr+VG74Jt1hfcBRnEchVh9P9eQ/18EcxVthe+NRuoADq8byjlTqrF7R0LnHyFG/hZiLyfSbkJHq8jubQrrChx8+9TOoh5MD3pSpZL1CyUP7r9qoSNRaB0O+CVnVPxUMmy/Ej96A9XRqHeQB/2d6mjc/8l1j646TPTwMtWL2gaG+ls765VXh8Fees17wtvAbD9E//qxmO9p6VdPHSt9SVvsHVuHtd6y660f09Fmf2Af+pPZ7vF8ddxjjpfurBolnzpcyLXUa3304SocpxPtrQok89TFdLTTmxMgaz9X3TJSK+2Of1muWp2OIl5Z7JELsGhxIRcyu32OIdrKVYYyEoasjQaXIhm2OwGfsZ+r2usZD7EXNqdjKExnJAxnaws5HljISBgs5SprGQmDjVwVGW+93YyTNLuQk9JuRsJgMle1kJEwGMtVIm4lI2EYTUzkqvYyEobvxrlKYr51tknDDfLWMxKGBrnKSUbCgM1V5rex7YHZIOdgRTAvGevmqltG8meJpsZaK1e5z0gY1HOVHxkJw0FpIceDg+uB4hlfanOVCC6+LtHUWG+rF3KpZxkJwymEF3Ky7NcoBLkCbw6eeJmRMCw/S6ajCBoe9fGLUeHgUeh1RsKwe8pVMnW2jW2PW676+3bk5o76+MXsGERhGEbBsUsT8JlsNN/NR928fz09PT09PT09PU34D3vxmsiliIlyAAAAAElFTkSuQmCC;" vertex="1" parent="1">
          <mxGeometry x="80.25" y="453.75" width="47.5" height="47.5" as="geometry" />
        </mxCell>
        <mxCell id="kOawJmbno_NPGkHudWB5-46" value="User" style="shape=umlActor;verticalLabelPosition=bottom;verticalAlign=top;html=1;outlineConnect=0;" vertex="1" parent="1">
          <mxGeometry x="315" y="60" width="30" height="60" as="geometry" />
        </mxCell>
        <mxCell id="kOawJmbno_NPGkHudWB5-47" value="Ask AI assistant" style="rounded=0;orthogonalLoop=1;jettySize=auto;html=1;entryX=0;entryY=0;entryDx=56;entryDy=15;entryPerimeter=0;" edge="1" parent="1" source="kOawJmbno_NPGkHudWB5-46" target="kOawJmbno_NPGkHudWB5-14">
          <mxGeometry x="-0.1907" y="-6" relative="1" as="geometry">
            <mxPoint as="offset" />
          </mxGeometry>
        </mxCell>
      </root>
    </mxGraphModel>
  </diagram>
</mxfile>
